<svg width="254" height="24" viewBox="0 0 254 24" fill="none" xmlns="http://www.w3.org/2000/svg">
<path d="M3.23329 18.8C2.49996 18.8 1.93329 18.6 1.53329 18.2C1.13329 17.7833 0.933289 17.2083 0.933289 16.475V3.275C0.933289 2.525 1.13329 1.95 1.53329 1.55C1.94996 1.15 2.52496 0.95 3.25829 0.95H9.40829C11.4083 0.95 12.95 1.44167 14.0333 2.425C15.1333 3.39167 15.6833 4.74167 15.6833 6.475C15.6833 7.59167 15.4333 8.56667 14.9333 9.4C14.45 10.2167 13.7416 10.85 12.8083 11.3C11.8916 11.7333 10.7583 11.95 9.40829 11.95L9.60829 11.5H10.8083C11.525 11.5 12.1583 11.675 12.7083 12.025C13.2583 12.3583 13.7166 12.875 14.0833 13.575L15.3333 15.825C15.6 16.3083 15.725 16.7833 15.7083 17.25C15.6916 17.7 15.5083 18.075 15.1583 18.375C14.825 18.6583 14.3333 18.8 13.6833 18.8C13.0333 18.8 12.5 18.6667 12.0833 18.4C11.6833 18.1333 11.325 17.7167 11.0083 17.15L8.73329 12.975C8.53329 12.6083 8.27496 12.3583 7.95829 12.225C7.65829 12.075 7.30829 12 6.90829 12H5.53329V16.475C5.53329 17.2083 5.34162 17.7833 4.95829 18.2C4.57496 18.6 3.99996 18.8 3.23329 18.8ZM5.53329 8.75H8.58329C9.46662 8.75 10.1416 8.575 10.6083 8.225C11.075 7.875 11.3083 7.33333 11.3083 6.6C11.3083 5.9 11.075 5.375 10.6083 5.025C10.1416 4.65833 9.46662 4.475 8.58329 4.475H5.53329V8.75Z" fill="white"/>
<path d="M24.6429 18.85C23.1429 18.85 21.8429 18.5917 20.7429 18.075C19.6595 17.5417 18.8262 16.7917 18.2429 15.825C17.6595 14.8583 17.3679 13.7167 17.3679 12.4C17.3679 11.1333 17.6429 10.025 18.1929 9.075C18.7595 8.10833 19.5262 7.35833 20.4929 6.825C21.4762 6.275 22.5929 6 23.8429 6C24.7595 6 25.5929 6.15 26.3429 6.45C27.0929 6.73333 27.7345 7.15833 28.2679 7.725C28.8012 8.275 29.2012 8.94167 29.4679 9.725C29.7512 10.5083 29.8929 11.3833 29.8929 12.35C29.8929 12.6833 29.8012 12.9333 29.6179 13.1C29.4345 13.25 29.1429 13.325 28.7429 13.325H21.0929V11.225H26.6429L26.2429 11.55C26.2429 10.9333 26.1595 10.4333 25.9929 10.05C25.8262 9.66667 25.5762 9.375 25.2429 9.175C24.9262 8.975 24.5262 8.875 24.0429 8.875C23.5262 8.875 23.0762 9 22.6929 9.25C22.3262 9.48333 22.0429 9.83333 21.8429 10.3C21.6429 10.7667 21.5429 11.35 21.5429 12.05V12.275C21.5429 13.4583 21.8012 14.3083 22.3179 14.825C22.8512 15.325 23.6679 15.575 24.7679 15.575C25.1345 15.575 25.5512 15.5333 26.0179 15.45C26.5012 15.35 26.9595 15.2167 27.3929 15.05C27.8262 14.8833 28.2012 14.8583 28.5179 14.975C28.8345 15.075 29.0762 15.2583 29.2429 15.525C29.4262 15.775 29.5262 16.0667 29.5429 16.4C29.5595 16.7167 29.4845 17.0333 29.3179 17.35C29.1512 17.65 28.8762 17.8833 28.4929 18.05C27.9095 18.3167 27.2845 18.5167 26.6179 18.65C25.9679 18.7833 25.3095 18.85 24.6429 18.85Z" fill="white"/>
<path d="M36.61 18.85C35.56 18.85 34.6267 18.5917 33.81 18.075C33.01 17.5583 32.3767 16.8167 31.91 15.85C31.46 14.8833 31.235 13.7417 31.235 12.425C31.235 11.075 31.46 9.925 31.91 8.975C32.3767 8.025 33.01 7.29167 33.81 6.775C34.6267 6.25833 35.56 6 36.61 6C37.5267 6 38.3517 6.21667 39.085 6.65C39.8184 7.08333 40.31 7.64167 40.56 8.325H40.285V2.975C40.285 2.24167 40.4767 1.68333 40.86 1.3C41.2434 0.916666 41.7934 0.725 42.51 0.725C43.21 0.725 43.7517 0.916666 44.135 1.3C44.535 1.68333 44.735 2.24167 44.735 2.975V16.55C44.735 17.2833 44.5434 17.8417 44.16 18.225C43.7934 18.6083 43.2517 18.8 42.535 18.8C41.835 18.8 41.2934 18.6083 40.91 18.225C40.5267 17.8417 40.335 17.2833 40.335 16.55V15.125L40.61 16.35C40.3767 17.1 39.885 17.7083 39.135 18.175C38.4017 18.625 37.56 18.85 36.61 18.85ZM38.035 15.575C38.485 15.575 38.885 15.4667 39.235 15.25C39.585 15.0167 39.8517 14.675 40.035 14.225C40.235 13.7583 40.335 13.1583 40.335 12.425C40.335 11.3083 40.1184 10.5083 39.685 10.025C39.2517 9.525 38.7017 9.275 38.035 9.275C37.585 9.275 37.185 9.38333 36.835 9.6C36.4851 9.81667 36.21 10.1583 36.01 10.625C35.81 11.075 35.71 11.675 35.71 12.425C35.71 13.525 35.9267 14.325 36.36 14.825C36.7934 15.325 37.3517 15.575 38.035 15.575Z" fill="white"/>
<path d="M55.413 18.85C54.463 18.85 53.613 18.625 52.863 18.175C52.1296 17.7083 51.6463 17.1 51.413 16.35L51.688 15.325V16.55C51.688 17.2833 51.4963 17.8417 51.113 18.225C50.7463 18.6083 50.213 18.8 49.513 18.8C48.7963 18.8 48.2463 18.6083 47.863 18.225C47.4963 17.8417 47.313 17.2833 47.313 16.55V2.975C47.313 2.24167 47.5046 1.68333 47.888 1.3C48.2713 0.916666 48.813 0.725 49.513 0.725C50.2296 0.725 50.7796 0.916666 51.163 1.3C51.563 1.68333 51.763 2.24167 51.763 2.975V8.325H51.463C51.713 7.64167 52.2046 7.08333 52.938 6.65C53.6713 6.21667 54.4963 6 55.413 6C56.4796 6 57.413 6.25833 58.213 6.775C59.0296 7.29167 59.663 8.025 60.113 8.975C60.563 9.925 60.788 11.075 60.788 12.425C60.788 13.7417 60.563 14.8833 60.113 15.85C59.663 16.8167 59.0296 17.5583 58.213 18.075C57.413 18.5917 56.4796 18.85 55.413 18.85ZM54.013 15.575C54.463 15.575 54.8546 15.4667 55.188 15.25C55.538 15.0167 55.813 14.675 56.013 14.225C56.213 13.7583 56.313 13.1583 56.313 12.425C56.313 11.3083 56.0963 10.5083 55.663 10.025C55.2296 9.525 54.6796 9.275 54.013 9.275C53.563 9.275 53.163 9.38333 52.813 9.6C52.463 9.81667 52.188 10.1583 51.988 10.625C51.788 11.075 51.688 11.675 51.688 12.425C51.688 13.525 51.9046 14.325 52.338 14.825C52.7713 15.325 53.3296 15.575 54.013 15.575Z" fill="white"/>
<path d="M69.5159 18.85C68.0159 18.85 66.7159 18.5917 65.6159 18.075C64.5326 17.5417 63.6992 16.7917 63.1159 15.825C62.5326 14.8583 62.2409 13.7167 62.2409 12.4C62.2409 11.1333 62.5159 10.025 63.0659 9.075C63.6326 8.10833 64.3992 7.35833 65.3659 6.825C66.3492 6.275 67.4659 6 68.7159 6C69.6326 6 70.4659 6.15 71.2159 6.45C71.9659 6.73333 72.6076 7.15833 73.1409 7.725C73.6742 8.275 74.0742 8.94167 74.3409 9.725C74.6242 10.5083 74.7659 11.3833 74.7659 12.35C74.7659 12.6833 74.6742 12.9333 74.4909 13.1C74.3076 13.25 74.0159 13.325 73.6159 13.325H65.9659V11.225H71.5159L71.1159 11.55C71.1159 10.9333 71.0326 10.4333 70.8659 10.05C70.6992 9.66667 70.4492 9.375 70.1159 9.175C69.7992 8.975 69.3992 8.875 68.9159 8.875C68.3992 8.875 67.9492 9 67.5659 9.25C67.1992 9.48333 66.9159 9.83333 66.7159 10.3C66.5159 10.7667 66.4159 11.35 66.4159 12.05V12.275C66.4159 13.4583 66.6742 14.3083 67.1909 14.825C67.7242 15.325 68.5409 15.575 69.6409 15.575C70.0076 15.575 70.4242 15.5333 70.8909 15.45C71.3742 15.35 71.8326 15.2167 72.2659 15.05C72.6992 14.8833 73.0742 14.8583 73.3909 14.975C73.7076 15.075 73.9492 15.2583 74.1159 15.525C74.2992 15.775 74.3992 16.0667 74.4159 16.4C74.4326 16.7167 74.3576 17.0333 74.1909 17.35C74.0242 17.65 73.7492 17.8833 73.3659 18.05C72.7826 18.3167 72.1576 18.5167 71.4909 18.65C70.8409 18.7833 70.1826 18.85 69.5159 18.85Z" fill="white"/>
<path d="M78.9581 18.8C78.2248 18.8 77.6581 18.6083 77.2581 18.225C76.8748 17.8417 76.6831 17.2833 76.6831 16.55V8.275C76.6831 7.55833 76.8664 7.00833 77.2331 6.625C77.6164 6.24167 78.1581 6.05 78.8581 6.05C79.5581 6.05 80.0914 6.24167 80.4581 6.625C80.8248 7.00833 81.0081 7.55833 81.0081 8.275V9.3H80.7581C80.9248 8.3 81.3498 7.50833 82.0331 6.925C82.7331 6.34167 83.5998 6.03333 84.6331 6C85.1164 5.98333 85.4748 6.10833 85.7081 6.375C85.9581 6.625 86.0914 7.1 86.1081 7.8C86.1081 8.4 85.9831 8.875 85.7331 9.225C85.4831 9.575 85.0081 9.78333 84.3081 9.85L83.7331 9.9C82.8498 9.98333 82.2081 10.2333 81.8081 10.65C81.4081 11.05 81.2081 11.65 81.2081 12.45V16.55C81.2081 17.2833 81.0164 17.8417 80.6331 18.225C80.2498 18.6083 79.6914 18.8 78.9581 18.8Z" fill="white"/>
<path d="M89.7979 18.8C89.0646 18.8 88.4979 18.6083 88.0979 18.225C87.7146 17.8417 87.5229 17.2833 87.5229 16.55V8.275C87.5229 7.55833 87.7063 7.00833 88.0729 6.625C88.4563 6.24167 88.9979 6.05 89.6979 6.05C90.3979 6.05 90.9313 6.24167 91.2979 6.625C91.6646 7.00833 91.8479 7.55833 91.8479 8.275V9.3H91.5979C91.7646 8.3 92.1896 7.50833 92.8729 6.925C93.5729 6.34167 94.4396 6.03333 95.4729 6C95.9563 5.98333 96.3146 6.10833 96.5479 6.375C96.7979 6.625 96.9313 7.1 96.9479 7.8C96.9479 8.4 96.8229 8.875 96.5729 9.225C96.3229 9.575 95.8479 9.78333 95.1479 9.85L94.5729 9.9C93.6896 9.98333 93.0479 10.2333 92.6479 10.65C92.2479 11.05 92.0479 11.65 92.0479 12.45V16.55C92.0479 17.2833 91.8563 17.8417 91.4729 18.225C91.0896 18.6083 90.5313 18.8 89.7979 18.8Z" fill="white"/>
<path d="M102.695 23.3C102.178 23.3 101.761 23.1667 101.445 22.9C101.128 22.6333 100.928 22.2833 100.845 21.85C100.778 21.4167 100.853 20.9583 101.07 20.475L102.745 16.85V18.65L98.4696 8.875C98.253 8.375 98.1779 7.90833 98.2446 7.475C98.3279 7.04167 98.5529 6.7 98.9196 6.45C99.2863 6.18333 99.7863 6.05 100.42 6.05C100.953 6.05 101.378 6.175 101.695 6.425C102.028 6.65833 102.328 7.125 102.595 7.825L105.095 14.325H104.245L106.895 7.8C107.161 7.11667 107.461 6.65833 107.795 6.425C108.145 6.175 108.611 6.05 109.195 6.05C109.695 6.05 110.095 6.18333 110.395 6.45C110.695 6.7 110.878 7.04167 110.945 7.475C111.011 7.90833 110.936 8.375 110.72 8.875L105.045 21.625C104.745 22.2917 104.411 22.7333 104.045 22.95C103.695 23.1833 103.245 23.3 102.695 23.3Z" fill="white"/>
<path d="M122.398 18.8C121.665 18.8 121.098 18.6 120.698 18.2C120.298 17.7833 120.098 17.2083 120.098 16.475V3.05C120.098 2.28333 120.298 1.70833 120.698 1.325C121.098 0.924999 121.665 0.725 122.398 0.725C123.148 0.725 123.715 0.924999 124.098 1.325C124.498 1.70833 124.698 2.28333 124.698 3.05V8.5H124.748L130.823 1.8C131.14 1.46667 131.473 1.20833 131.823 1.025C132.19 0.825 132.598 0.725 133.048 0.725C133.748 0.725 134.248 0.908333 134.548 1.275C134.865 1.625 135.007 2.04167 134.973 2.525C134.957 2.99167 134.765 3.425 134.398 3.825L128.348 10.25V8.375L134.698 15.55C135.132 16.0333 135.348 16.5333 135.348 17.05C135.348 17.55 135.173 17.9667 134.823 18.3C134.49 18.6333 133.99 18.8 133.323 18.8C132.757 18.8 132.298 18.6917 131.948 18.475C131.615 18.2417 131.248 17.9 130.848 17.45L124.748 10.625H124.698V16.475C124.698 17.2083 124.507 17.7833 124.123 18.2C123.74 18.6 123.165 18.8 122.398 18.8Z" fill="white"/>
<path d="M139.796 18.8C139.096 18.8 138.555 18.6083 138.171 18.225C137.788 17.8417 137.596 17.2833 137.596 16.55V8.275C137.596 7.55833 137.78 7.00833 138.146 6.625C138.53 6.24167 139.071 6.05 139.771 6.05C140.471 6.05 141.005 6.24167 141.371 6.625C141.738 7.00833 141.921 7.55833 141.921 8.275V9.45L141.646 8.425C142.046 7.64167 142.613 7.04167 143.346 6.625C144.096 6.20833 144.946 6 145.896 6C146.88 6 147.688 6.19167 148.321 6.575C148.955 6.94167 149.43 7.525 149.746 8.325C150.063 9.10833 150.221 10.1 150.221 11.3V16.55C150.221 17.2833 150.03 17.8417 149.646 18.225C149.263 18.6083 148.713 18.8 147.996 18.8C147.28 18.8 146.73 18.6083 146.346 18.225C145.963 17.8417 145.771 17.2833 145.771 16.55V11.475C145.771 10.725 145.638 10.1917 145.371 9.875C145.121 9.55833 144.746 9.4 144.246 9.4C143.58 9.4 143.046 9.61667 142.646 10.05C142.246 10.4667 142.046 11.0333 142.046 11.75V16.55C142.046 18.05 141.296 18.8 139.796 18.8Z" fill="white"/>
<path d="M154.957 18.8C154.257 18.8 153.716 18.5917 153.332 18.175C152.949 17.7583 152.757 17.1583 152.757 16.375V8.475C152.757 7.69167 152.949 7.09167 153.332 6.675C153.716 6.25833 154.257 6.05 154.957 6.05C155.674 6.05 156.224 6.25833 156.607 6.675C157.007 7.09167 157.207 7.69167 157.207 8.475V16.375C157.207 17.1583 157.016 17.7583 156.632 18.175C156.249 18.5917 155.691 18.8 154.957 18.8ZM154.957 4.275C154.174 4.275 153.566 4.09167 153.132 3.725C152.716 3.35833 152.507 2.825 152.507 2.125C152.507 1.44167 152.716 0.916666 153.132 0.55C153.566 0.183333 154.174 0 154.957 0C155.774 0 156.391 0.183333 156.807 0.55C157.224 0.916666 157.432 1.44167 157.432 2.125C157.432 2.825 157.224 3.35833 156.807 3.725C156.391 4.09167 155.774 4.275 154.957 4.275Z" fill="white"/>
<path d="M165.889 23.35C164.972 23.35 164.114 23.2833 163.314 23.15C162.514 23.0333 161.822 22.8583 161.239 22.625C160.755 22.4583 160.414 22.2167 160.214 21.9C160.014 21.5833 159.922 21.25 159.939 20.9C159.955 20.55 160.047 20.2333 160.214 19.95C160.397 19.6667 160.639 19.4583 160.939 19.325C161.239 19.2083 161.572 19.2167 161.939 19.35C162.672 19.65 163.339 19.8417 163.939 19.925C164.539 20.025 165.047 20.075 165.464 20.075C166.48 20.075 167.239 19.8583 167.739 19.425C168.255 19.0083 168.514 18.35 168.514 17.45V15.875H168.714C168.464 16.575 167.955 17.15 167.189 17.6C166.422 18.0333 165.589 18.25 164.689 18.25C163.589 18.25 162.63 18 161.814 17.5C160.997 16.9833 160.355 16.2667 159.889 15.35C159.439 14.4333 159.214 13.3583 159.214 12.125C159.214 11.1917 159.347 10.35 159.614 9.6C159.88 8.85 160.247 8.20833 160.714 7.675C161.197 7.14167 161.772 6.73333 162.439 6.45C163.122 6.15 163.872 6 164.689 6C165.622 6 166.455 6.21667 167.189 6.65C167.939 7.08333 168.439 7.65 168.689 8.35L168.439 9.375V8.275C168.439 7.55833 168.63 7.00833 169.014 6.625C169.414 6.24167 169.964 6.05 170.664 6.05C171.364 6.05 171.897 6.24167 172.264 6.625C172.647 7.00833 172.839 7.55833 172.839 8.275V16.925C172.839 19.0583 172.239 20.6583 171.039 21.725C169.839 22.8083 168.122 23.35 165.889 23.35ZM166.064 14.975C166.564 14.975 166.989 14.8667 167.339 14.65C167.689 14.4167 167.964 14.0917 168.164 13.675C168.364 13.2417 168.464 12.725 168.464 12.125C168.464 11.225 168.247 10.525 167.814 10.025C167.38 9.525 166.797 9.275 166.064 9.275C165.597 9.275 165.18 9.39167 164.814 9.625C164.447 9.84167 164.164 10.1667 163.964 10.6C163.78 11.0167 163.689 11.525 163.689 12.125C163.689 13.025 163.905 13.725 164.339 14.225C164.772 14.725 165.347 14.975 166.064 14.975Z" fill="white"/>
<path d="M177.638 18.8C176.938 18.8 176.396 18.6083 176.013 18.225C175.63 17.8417 175.438 17.2833 175.438 16.55V2.975C175.438 2.24167 175.63 1.68333 176.013 1.3C176.396 0.916666 176.938 0.725 177.638 0.725C178.355 0.725 178.905 0.916666 179.288 1.3C179.688 1.68333 179.888 2.24167 179.888 2.975V8.425H179.488C179.888 7.64167 180.455 7.04167 181.188 6.625C181.938 6.20833 182.788 6 183.738 6C184.721 6 185.53 6.19167 186.163 6.575C186.796 6.94167 187.271 7.525 187.588 8.325C187.905 9.10833 188.063 10.1 188.063 11.3V16.55C188.063 17.2833 187.871 17.8417 187.488 18.225C187.105 18.6083 186.555 18.8 185.838 18.8C185.121 18.8 184.571 18.6083 184.188 18.225C183.805 17.8417 183.613 17.2833 183.613 16.55V11.475C183.613 10.725 183.48 10.1917 183.213 9.875C182.963 9.55833 182.588 9.4 182.088 9.4C181.421 9.4 180.888 9.61667 180.488 10.05C180.088 10.4667 179.888 11.0333 179.888 11.75V16.55C179.888 18.05 179.138 18.8 177.638 18.8Z" fill="white"/>
<path d="M197.049 18.85C195.799 18.85 194.766 18.6583 193.949 18.275C193.149 17.8917 192.549 17.3167 192.149 16.55C191.749 15.7667 191.549 14.7917 191.549 13.625V9.55H190.699C190.166 9.55 189.749 9.40833 189.449 9.125C189.166 8.84167 189.024 8.43333 189.024 7.9C189.024 7.36667 189.166 6.96667 189.449 6.7C189.749 6.41667 190.166 6.275 190.699 6.275H191.549V4.725C191.549 3.99167 191.741 3.43333 192.124 3.05C192.507 2.66667 193.057 2.475 193.774 2.475C194.491 2.475 195.041 2.66667 195.424 3.05C195.807 3.43333 195.999 3.99167 195.999 4.725V6.275H198.049C198.599 6.275 199.016 6.41667 199.299 6.7C199.599 6.96667 199.749 7.36667 199.749 7.9C199.749 8.43333 199.599 8.84167 199.299 9.125C199.016 9.40833 198.599 9.55 198.049 9.55H195.999V13.475C195.999 14.0917 196.141 14.55 196.424 14.85C196.724 15.1333 197.191 15.275 197.824 15.275C198.057 15.275 198.282 15.25 198.499 15.2C198.716 15.15 198.916 15.125 199.099 15.125C199.366 15.1083 199.582 15.1917 199.749 15.375C199.916 15.5417 199.999 15.9333 199.999 16.55C199.999 17.05 199.924 17.475 199.774 17.825C199.624 18.1583 199.357 18.4 198.974 18.55C198.741 18.6333 198.424 18.7 198.024 18.75C197.624 18.8167 197.299 18.85 197.049 18.85Z" fill="white"/>
<path d="M217.597 18.85C215.647 18.85 213.972 18.475 212.572 17.725C211.172 16.975 210.097 15.9167 209.347 14.55C208.614 13.1833 208.247 11.5833 208.247 9.75C208.247 8.38333 208.455 7.14167 208.872 6.025C209.305 4.90833 209.922 3.95 210.722 3.15C211.539 2.35 212.522 1.74167 213.672 1.325C214.839 0.891667 216.147 0.675 217.597 0.675C218.364 0.675 219.155 0.766667 219.972 0.95C220.805 1.11667 221.539 1.375 222.172 1.725C222.639 1.975 222.964 2.29167 223.147 2.675C223.33 3.05833 223.389 3.45 223.322 3.85C223.272 4.25 223.13 4.60833 222.897 4.925C222.664 5.24167 222.364 5.45833 221.997 5.575C221.63 5.675 221.23 5.61667 220.797 5.4C220.297 5.16667 219.797 4.99167 219.297 4.875C218.814 4.74167 218.305 4.675 217.772 4.675C216.739 4.675 215.872 4.875 215.172 5.275C214.489 5.65833 213.972 6.225 213.622 6.975C213.272 7.725 213.097 8.65 213.097 9.75C213.097 10.85 213.272 11.7833 213.622 12.55C213.972 13.3 214.489 13.875 215.172 14.275C215.872 14.6583 216.739 14.85 217.772 14.85C218.205 14.85 218.672 14.8 219.172 14.7C219.672 14.5833 220.164 14.4083 220.647 14.175C221.147 13.9583 221.589 13.9 221.972 14C222.372 14.1 222.689 14.3 222.922 14.6C223.172 14.9 223.33 15.25 223.397 15.65C223.464 16.0333 223.405 16.4167 223.222 16.8C223.055 17.1833 222.755 17.4917 222.322 17.725C221.739 18.075 221.014 18.35 220.147 18.55C219.297 18.75 218.447 18.85 217.597 18.85Z" fill="white"/>
<path d="M229.867 18.85C228.8 18.85 227.925 18.6583 227.242 18.275C226.559 17.875 226.042 17.2833 225.692 16.5C225.359 15.7167 225.192 14.725 225.192 13.525V8.275C225.192 7.54167 225.384 6.99167 225.767 6.625C226.15 6.24167 226.7 6.05 227.417 6.05C228.134 6.05 228.684 6.24167 229.067 6.625C229.45 6.99167 229.642 7.54167 229.642 8.275V13.65C229.642 14.25 229.767 14.7 230.017 15C230.267 15.3 230.659 15.45 231.192 15.45C231.792 15.45 232.284 15.2333 232.667 14.8C233.05 14.3667 233.242 13.7917 233.242 13.075V8.275C233.242 7.54167 233.434 6.99167 233.817 6.625C234.2 6.24167 234.75 6.05 235.467 6.05C236.184 6.05 236.734 6.24167 237.117 6.625C237.5 6.99167 237.692 7.54167 237.692 8.275V16.55C237.692 18.05 236.975 18.8 235.542 18.8C234.842 18.8 234.3 18.6083 233.917 18.225C233.534 17.8417 233.342 17.2833 233.342 16.55V15.1L233.742 16.325C233.375 17.1417 232.859 17.7667 232.192 18.2C231.542 18.6333 230.767 18.85 229.867 18.85Z" fill="white"/>
<path d="M242.482 23.3C241.782 23.3 241.24 23.1083 240.857 22.725C240.473 22.3417 240.282 21.7833 240.282 21.05V8.275C240.282 7.55833 240.465 7.00833 240.832 6.625C241.215 6.24167 241.757 6.05 242.457 6.05C243.173 6.05 243.715 6.24167 244.082 6.625C244.465 7.00833 244.657 7.55833 244.657 8.275V9.725L244.382 8.5C244.615 7.75 245.098 7.15 245.832 6.7C246.582 6.23333 247.432 6 248.382 6C249.448 6 250.382 6.25833 251.182 6.775C251.998 7.29167 252.632 8.025 253.082 8.975C253.532 9.925 253.757 11.075 253.757 12.425C253.757 13.7417 253.532 14.8833 253.082 15.85C252.632 16.8167 251.998 17.5583 251.182 18.075C250.382 18.5917 249.448 18.85 248.382 18.85C247.465 18.85 246.64 18.6333 245.907 18.2C245.173 17.7667 244.682 17.2 244.432 16.5H244.732V21.05C244.732 21.7833 244.532 22.3417 244.132 22.725C243.748 23.1083 243.198 23.3 242.482 23.3ZM246.982 15.575C247.432 15.575 247.823 15.4667 248.157 15.25C248.507 15.0167 248.782 14.675 248.982 14.225C249.182 13.7583 249.282 13.1583 249.282 12.425C249.282 11.3083 249.065 10.5083 248.632 10.025C248.198 9.525 247.648 9.275 246.982 9.275C246.532 9.275 246.132 9.38333 245.782 9.6C245.432 9.81667 245.157 10.1583 244.957 10.625C244.757 11.075 244.657 11.675 244.657 12.425C244.657 13.525 244.873 14.325 245.307 14.825C245.74 15.325 246.298 15.575 246.982 15.575Z" fill="white"/>
</svg>
